<svg width="27" height="26" viewBox="0 0 27 26" fill="none" xmlns="http://www.w3.org/2000/svg">
<path d="M3.78787 8.66667H23.2121M3.78787 8.66667C3.74999 9.57871 3.75 10.6494 3.75 11.9167V14.0833C3.75 18.1688 3.75 20.2116 5.0192 21.4808C6.28841 22.75 8.33116 22.75 12.4167 22.75H14.5833C18.6688 22.75 20.7116 22.75 21.9808 21.4808C23.25 20.2116 23.25 18.1688 23.25 14.0833V11.9167C23.25 10.6494 23.25 9.57871 23.2121 8.66667M3.78787 8.66667C3.87211 6.63834 4.14368 5.39473 5.0192 4.5192C6.28841 3.25 8.33116 3.25 12.4167 3.25H14.5833C18.6688 3.25 20.7116 3.25 21.9808 4.5192C22.8563 5.39473 23.1279 6.63834 23.2121 8.66667M9.16667 13H9.1775M13.5108 13H13.5217M17.855 13H17.8659M9.16667 17.3333H9.1775M13.5108 17.3333H13.5217M17.855 17.3333H17.8659" stroke="black" stroke-width="2" stroke-linecap="round"/>
</svg>
