<svg width="693" height="328" viewBox="0 0 693 328" fill="none" xmlns="http://www.w3.org/2000/svg">
<g clip-path="url(#clip0_604_66)">
<path d="M207.953 68.8136C208.011 68.8235 208.097 68.8381 208.202 68.8555C210.254 69.1951 222.656 71.1086 235.16 66.3454C240.457 64.3275 238.65 63.8246 250.448 56.8092C264.279 48.5845 267.829 48.642 268.859 44.8069C270.915 37.149 259.933 25.1105 252.664 25.9031C250.751 26.1118 248.701 27.2527 245.513 26.4791C244.813 26.3091 241.747 25.5651 240.252 23.0273C238.919 20.7634 240.048 19.1303 239.512 17.2736C238.105 12.4 226.372 9.96778 216.086 11.6863C210.169 12.6747 205.568 15.3731 196.606 20.7296C181.008 30.0527 173.208 34.7142 171.456 41.8563C169.794 48.6256 173.782 51.5424 170.882 58.7888C168.181 65.5361 163.892 65.0854 162.416 70.5437C160.041 79.327 168.856 88.9668 172.529 92.9825C176.554 97.3851 180.405 99.8015 185.516 103.009C191.932 107.036 195.14 109.049 198.997 108.844C205.99 108.473 226.769 109.737 227.04 103.95C227.141 101.782 252.343 103.557 239.933 80.2093C238.411 77.3456 208.594 80.4045 208.201 78.7593" fill="#2F2E41"/>
<path d="M492.194 301.238L521.247 303.868L557.328 322.193L563.279 300.941L568.475 274.036L557.649 261.286L538.947 274.036L499.844 269.786L492.194 301.238Z" fill="#FFB6B6"/>
<path d="M253.326 212.832L231.224 321.64L391.886 275.737L495.594 304.639L510.895 271.486L396.136 223.033L301.779 224.733L253.326 212.832Z" fill="#2F2E41"/>
<path d="M560.588 272.885L563.988 275.435L542.877 315.393C542.877 315.393 557.138 323.713 561.388 323.713C565.639 323.713 580.14 241.433 578.44 229.281C576.739 217.129 565.689 221.031 565.689 221.031L541.834 271.425L560.588 272.885V272.885V272.885Z" fill="#2F2E41"/>
<path d="M90.1985 259.086C87.9702 258.847 87.1011 261.897 89.114 262.882C92.0293 264.309 94.7715 266.107 96.2008 268.235C99.8551 273.678 104.904 270.532 105.622 270.044C106.803 272.008 107.384 273.994 107.634 275.759L105.912 281.466C105.837 281.847 105.915 281.454 105.912 281.466L104.592 295.988C103.687 299.516 104.37 302.912 104.592 303.909L103.272 322.393L106.963 322.422L107.36 304.34L107.438 304.317C107.435 304.31 107.407 304.211 107.367 304.034L107.532 296.562C107.864 295.283 108.39 293.938 109.191 292.603C109.909 293.091 114.958 296.238 118.613 290.795C120.042 288.666 122.784 286.868 125.699 285.442C127.712 284.456 126.843 281.406 124.615 281.646C122.727 281.849 120.668 282.154 118.477 282.6C109.19 284.491 108.997 290.798 109.078 292.244L109.015 292.204C108.381 293.222 107.91 294.248 107.561 295.25L107.87 281.18C108.062 280.183 110.208 278.604 109.873 276.185L108.437 255.408C108.944 256.278 109.506 256.843 110.036 256.783C111.303 256.638 111.942 252.971 111.781 250.302C113.356 252.484 116.343 255.019 117.432 254.291C118.256 253.74 117.767 251.47 116.868 249.407C118.743 250.536 120.819 251.278 121.463 250.561C122.342 249.582 120.236 246.243 118.293 244.379C120.893 244.621 124.201 244.207 124.418 243.023C124.597 242.048 122.628 240.817 120.521 240.025C122.637 239.467 124.617 238.495 124.551 237.533C124.457 236.163 120.25 235.334 117.559 235.517C117.404 235.528 117.258 235.542 117.119 235.559C119.425 234.16 122.262 231.276 121.598 230.121C121.104 229.261 118.807 229.594 116.687 230.352C117.941 228.558 118.823 226.537 118.152 225.845C117.195 224.86 113.448 226.946 111.513 228.826C111.333 229.001 111.175 229.168 111.037 229.328C111.044 229.191 111.048 229.047 111.048 228.895C111.048 226.197 109.935 222.056 108.561 222.056C107.597 222.056 106.762 224.096 106.349 226.246C105.415 224.198 104.054 222.317 103.093 222.562C101.944 222.854 101.745 226.087 102.139 228.648C100.113 227.004 97.143 225.517 96.3062 226.378C95.6346 227.07 96.5165 229.091 97.771 230.885C95.6512 230.127 93.3535 229.794 92.8596 230.654C92.3223 231.589 94.0791 233.657 95.9911 235.153C93.4562 235.269 90.5178 236.035 90.4399 237.178C90.3743 238.14 92.3534 239.112 94.4698 239.67C92.3627 240.462 90.3941 241.693 90.5728 242.668C90.7897 243.852 94.0975 244.266 96.6982 244.023C94.7552 245.888 92.6484 249.227 93.5276 250.206C94.172 250.923 96.2483 250.181 98.1232 249.051C97.2234 251.115 96.7347 253.384 97.5588 253.936C98.5902 254.626 101.324 252.388 102.949 250.296C102.71 252.967 103.267 256.726 104.545 256.9C105.527 257.034 106.667 255.012 107.362 252.871C107.571 253.537 107.821 254.187 108.096 254.761L107.671 274.09C107.317 272.659 106.732 271.143 105.798 269.645L105.735 269.684C105.817 268.239 105.624 261.932 96.3359 260.041C94.1454 259.594 92.0861 259.29 90.1984 259.087L90.1985 259.086H90.1985ZM107.129 298.707L107.059 301.869C106.996 300.982 106.989 299.903 107.129 298.707Z" fill="#F2F2F2"/>
<path d="M691.109 320.509H1.57104C0.69976 320.509 0 321.209 0 322.08C0 322.952 0.69971 323.651 1.57104 323.651H691.109C691.981 323.651 692.68 322.952 692.68 322.08C692.68 321.209 691.981 320.509 691.109 320.509Z" fill="#3F3D56"/>
<path d="M187.55 118.178L198.601 79.075L225.803 79.925L235.154 111.377L187.55 118.178Z" fill="#FFB6B6"/>
<path d="M193.396 106.999L193.396 106.999C193.396 106.999 185.321 104.874 170.02 124.425C154.718 143.977 161.519 283.387 161.519 283.387L272.452 258.31L243.423 158.37L237.6 105.299L193.396 106.999V106.999V106.999Z" fill="#2BA873"/>
<path d="M366.457 142.905L329.963 164.035L337.978 178.772L375.193 158.408C379.189 158.208 383.079 157.054 386.537 155.042C395.262 150.125 399.796 141.642 396.669 136.091C393.541 130.54 383.935 130.026 375.214 134.942C371.701 136.859 368.698 139.59 366.457 142.905H366.457Z" fill="#FFB6B6"/>
<path d="M191.567 146.19L267.571 215.805L372.237 165.167L359.108 139.07L284.357 168.705L212.684 111.006L191.567 146.19Z" fill="#2BA873"/>
<path d="M166.619 268.086L197.222 219.632C197.222 219.632 258.426 158.428 281.378 163.528C304.33 168.629 331.532 264.686 331.532 264.686L308.58 279.137L267.777 222.183C267.777 222.183 263.526 300.388 250.886 317.39C238.245 334.391 187.021 326.74 168.319 317.39C149.618 308.039 166.619 268.086 166.619 268.086V268.086V268.086Z" fill="#2F2E41"/>
<path d="M306.88 268.936L310.28 285.087L308.58 295.288L314.53 307.189L361.284 312.289L363.834 290.188L339.182 277.437L321.331 259.585L306.88 268.936Z" fill="#FFB6B6"/>
<path d="M357.884 303.789L355.333 307.189L306.371 293.079C306.371 293.079 308.58 314.839 308.58 319.09C308.58 323.34 389.336 323.34 401.488 321.64C413.64 319.94 409.737 308.889 409.737 308.889L359.343 285.034L357.884 303.789V303.789Z" fill="#2F2E41"/>
<path d="M302.065 154.014L343.466 157.629L367.818 150.194L381.607 133.353L392.881 94.7179L328.571 65.6765L327.397 65.1476L318.485 66.0049L302.436 152.021L302.065 154.014Z" fill="#FD6982"/>
<path opacity="0.2" d="M302.436 152.021L313.565 153.533L328.571 65.6765L327.397 65.1476L318.485 66.0049L302.436 152.021Z" fill="#241F20"/>
<path d="M306.605 159.994C304.988 159.866 303.516 159.039 302.566 157.724C301.617 156.409 301.294 154.751 301.682 153.176L303.778 144.651L303.97 144.677C304.084 144.692 315.517 146.217 328.688 146.771C346.093 147.504 358.613 146.217 364.894 143.051C380.364 135.248 389.312 93.1209 389.401 92.6962L389.441 92.4995L392.805 92.9655C394.327 93.1768 395.663 93.9765 396.567 95.2176C397.468 96.4557 397.819 97.9679 397.553 99.4754C395.482 111.256 388.704 139.866 370.567 151.073C370.389 151.183 370.212 151.29 370.032 151.398C351.829 162.232 319.677 161.028 306.605 159.994V159.994Z" fill="#3F3D58"/>
<path d="M354.477 147.354C350.877 149.101 347.747 151.685 345.35 154.89L307.889 174.253L315.192 189.356L353.336 170.792C357.337 170.783 361.278 169.816 364.828 167.971C373.778 163.476 378.712 155.219 375.853 149.526C372.994 143.832 363.423 142.859 354.477 147.354L354.477 147.354V147.354Z" fill="#FFB6B6"/>
<path d="M170.503 149.822L243.097 222.986L350.061 177.402L338.192 150.709L262.112 176.74L193.276 115.686L170.503 149.822Z" fill="#2BA873"/>
<path d="M213.626 94.5232C235.384 94.5232 253.022 76.8853 253.022 55.1278C253.022 33.3703 235.384 15.7324 213.626 15.7324C191.869 15.7324 174.231 33.3703 174.231 55.1278C174.231 76.8853 191.869 94.5232 213.626 94.5232Z" fill="#FFB6B6"/>
<path d="M200.937 57.6772C200.995 57.6871 201.081 57.7017 201.186 57.7191C203.237 58.0586 215.64 59.9721 228.144 55.209C233.441 53.1911 231.634 52.6882 243.432 45.6728C257.263 37.4481 260.813 37.5056 261.843 33.6705C263.899 26.0125 252.917 13.9741 245.648 14.7667C243.735 14.9754 241.685 16.1163 238.497 15.3427C237.797 15.1727 234.731 14.4287 233.236 11.8909C231.903 9.62699 233.032 7.99389 232.496 6.13718C231.089 1.26356 219.356 -1.16864 209.07 0.549843C203.153 1.53826 198.552 4.23667 189.59 9.59315C173.991 18.9163 166.192 23.5778 164.439 30.7199C162.778 37.4892 166.766 40.4061 163.866 47.6524C161.165 54.3997 156.876 53.949 155.4 59.4073C153.025 68.1906 161.84 77.8304 165.512 81.8461C169.538 86.2487 173.389 88.6651 178.5 91.8729C184.916 95.8993 188.124 97.9125 191.981 97.7077C198.974 97.3364 205.929 90.9993 206.2 85.2126C206.302 83.0439 205.397 82.3936 203.158 74.9383C202.225 71.8323 201.578 69.2681 201.184 67.623" fill="#2F2E41"/>
</g>
<defs>
<clipPath id="clip0_604_66">
<rect width="692.68" height="327.472" fill="white"/>
</clipPath>
</defs>
</svg>
