<svg width="94" height="75" viewBox="0 0 94 75" fill="none" xmlns="http://www.w3.org/2000/svg">
<path fill-rule="evenodd" clip-rule="evenodd" d="M24.3933 23.5678C24.7151 24.9626 25.1606 26.4096 25.7267 27.8803C24.2809 28.0237 22.9103 28.2469 21.6357 28.5474C19.2886 29.1007 17.111 29.9533 15.3817 31.189C13.6368 32.4358 12.1697 34.2157 11.7574 36.5729C11.3451 38.93 12.1198 41.1084 13.3365 42.8817C14.5423 44.6391 16.2993 46.191 18.3171 47.5203C18.6941 47.7686 19.0848 48.0122 19.4886 48.2508C23.4298 50.598 28.6296 52.4608 34.3598 53.4794C40.8222 54.6281 46.9701 54.0132 51.6424 52.6523C51.898 52.5779 52.1505 52.5008 52.3995 52.4212C51.7133 55.34 51.2464 58.1236 51.0268 60.5902C50.8123 62.9992 50.8165 65.2847 51.1742 67.1586C51.4448 68.576 52.1205 70.8044 54.0635 71.9284C54.3227 72.0861 54.6052 72.2238 54.9132 72.3368C57.2554 73.1962 59.4051 72.0939 60.7405 71.1042C62.1922 70.0282 63.5911 68.4395 64.8866 66.6247C67.5044 62.9576 70.147 57.7315 72.2843 51.8117C74.4217 45.8919 75.7296 40.1762 76.0626 35.6707C76.2273 33.4411 76.1688 31.3176 75.7427 29.5526C75.3987 28.1274 74.6292 26.2289 72.8616 25.2051C72.5909 25.0407 72.2962 24.897 71.9752 24.7792C69.8779 24.0097 67.8722 24.7139 66.4251 25.6132C64.9476 26.5315 63.5543 27.9376 62.2777 29.579C61.3825 30.73 60.4885 32.0699 59.6131 33.5775C58.182 29.8997 55.9172 25.76 52.5713 21.7402C48.9683 17.4116 44.9383 13.9044 41.0832 11.6263C40.5285 11.296 39.9773 10.991 39.4314 10.7126C37.2806 9.61563 35.0688 8.85765 32.9562 8.68366C30.8245 8.5081 28.5657 8.92096 26.7469 10.4595L26.8099 10.5352C25.0174 12.0662 24.1915 14.2777 23.9028 16.4306C23.6091 18.6205 23.818 21.0742 24.3933 23.5678ZM36.6379 16.5104C37.032 16.7114 37.4345 16.933 37.8441 17.1748C40.9175 19.0066 44.3755 21.9641 47.5895 25.8253C49.6217 28.2668 51.1747 30.743 52.331 33.0634C48.5561 31.029 43.81 29.4186 38.6305 28.4979C36.5952 28.1361 34.5866 27.8975 32.6409 27.7781C31.6963 25.7996 31.0203 23.8718 30.6137 22.1094C30.1585 20.1367 30.07 18.4979 30.2316 17.2932C30.3967 16.0619 30.772 15.5878 30.9415 15.4444C31.103 15.3078 31.518 15.0704 32.5257 15.1534C33.5525 15.238 34.9458 15.6474 36.6379 16.5104ZM35.3792 47.0861C30.2695 46.1778 25.8643 44.5535 22.728 42.7025C22.4411 42.5314 22.1651 42.3585 21.9003 42.1841C20.3128 41.1383 19.2645 40.1266 18.6785 39.2725C18.1033 38.4342 18.0997 37.9533 18.1363 37.7439C18.173 37.5346 18.3395 37.0839 19.1644 36.4945C20.0048 35.8939 21.3332 35.3047 23.1797 34.8693C24.8132 34.4842 26.7303 34.2481 28.8496 34.1921C29.8999 35.9173 31.1078 37.6197 32.4682 39.2541C35.6919 43.127 39.506 45.8405 43.2897 47.5217C40.8178 47.681 38.134 47.5757 35.3792 47.0861ZM37.6111 34.8912C42.7211 35.7996 47.1263 37.4239 50.2627 39.2751C50.5494 39.446 50.8254 39.6189 51.09 39.7933C52.6775 40.839 53.7258 41.8507 54.3119 42.7048C54.3899 42.8185 54.4573 42.9255 54.5156 43.0263C54.243 43.0866 53.9342 43.1363 53.5863 43.1697C52.2728 43.2957 50.613 43.1629 48.7543 42.6615C45.043 41.6603 40.8115 39.2619 37.3604 35.1158C37.2741 35.0121 37.1885 34.9081 37.1037 34.8038C37.2723 34.832 37.4415 34.8611 37.6111 34.8912ZM67.3931 33.6044C68.2365 32.52 68.962 31.8083 69.5226 31.3843C69.6718 32.236 69.7265 33.486 69.6043 35.1393C69.326 38.9052 68.1893 44.0291 66.1935 49.5567C64.1978 55.0843 61.8014 59.7459 59.6133 62.8111C58.7873 63.9683 58.0511 64.8124 57.4431 65.3795C57.3273 64.3623 57.3217 62.9649 57.4771 61.2189C57.8355 57.1936 58.9897 51.9492 60.8276 46.6824C60.9236 46.4761 61.0092 46.2589 61.0805 46.0311C61.2414 45.685 61.3534 45.3376 61.4328 45.0141C63.3399 39.9544 65.4748 36.0708 67.3931 33.6044Z" fill="url(#paint0_linear_736_3655)"/>
<path d="M61.6725 0.770338C61.9149 -0.256779 63.3767 -0.25678 63.6191 0.770337L64.7948 5.75312C64.8819 6.12183 65.1697 6.40972 65.5385 6.49673L70.5212 7.67251C71.5483 7.91488 71.5483 9.37669 70.5212 9.61905L65.5385 10.7948C65.1697 10.8818 64.8819 11.1697 64.7948 11.5385L63.6191 16.5212C63.3767 17.5483 61.9149 17.5483 61.6725 16.5212L60.4967 11.5385C60.4097 11.1697 60.1218 10.8818 59.7531 10.7948L54.7703 9.61906C53.7432 9.37669 53.7432 7.91488 54.7703 7.67251L59.7531 6.49673C60.1218 6.40972 60.4097 6.12183 60.4967 5.75312L61.6725 0.770338Z" fill="url(#paint1_linear_736_3655)"/>
<path d="M85.6725 44.7703C85.9149 43.7432 87.3767 43.7432 87.6191 44.7703L88.413 48.135C88.5 48.5037 88.7879 48.7916 89.1566 48.8786L92.5212 49.6725C93.5483 49.9149 93.5483 51.3767 92.5212 51.6191L89.1566 52.413C88.7879 52.5 88.5 52.7879 88.413 53.1566L87.6191 56.5212C87.3767 57.5484 85.9149 57.5484 85.6725 56.5212L84.8786 53.1566C84.7916 52.7879 84.5037 52.5 84.135 52.413L80.7703 51.6191C79.7432 51.3767 79.7432 49.9149 80.7703 49.6725L84.135 48.8786C84.5037 48.7916 84.7916 48.5037 84.8786 48.135L85.6725 44.7703Z" fill="url(#paint2_linear_736_3655)"/>
<path d="M10.6725 51.7703C10.9149 50.7432 12.3767 50.7432 12.6191 51.7703L14.3676 59.1804C14.4546 59.5491 14.7425 59.837 15.1112 59.924L22.5212 61.6725C23.5483 61.9149 23.5483 63.3767 22.5212 63.6191L15.1112 65.3676C14.7425 65.4546 14.4546 65.7425 14.3676 66.1112L12.6191 73.5212C12.3767 74.5483 10.9149 74.5483 10.6725 73.5212L8.92397 66.1112C8.83697 65.7425 8.54907 65.4546 8.18036 65.3676L0.770339 63.6191C-0.256778 63.3767 -0.256781 61.9149 0.770336 61.6725L8.18036 59.924C8.54907 59.837 8.83696 59.5491 8.92397 59.1804L10.6725 51.7703Z" fill="url(#paint3_linear_736_3655)"/>
<defs>
<linearGradient id="paint0_linear_736_3655" x1="46.6458" y1="1.89856e-06" x2="3.28054" y2="77.2384" gradientUnits="userSpaceOnUse">
<stop stop-color="#12D4A6"/>
<stop offset="0.619792" stop-color="#29947A"/>
</linearGradient>
<linearGradient id="paint1_linear_736_3655" x1="46.6458" y1="1.89856e-06" x2="3.28054" y2="77.2384" gradientUnits="userSpaceOnUse">
<stop stop-color="#12D4A6"/>
<stop offset="0.619792" stop-color="#29947A"/>
</linearGradient>
<linearGradient id="paint2_linear_736_3655" x1="46.6458" y1="1.89856e-06" x2="3.28054" y2="77.2384" gradientUnits="userSpaceOnUse">
<stop stop-color="#12D4A6"/>
<stop offset="0.619792" stop-color="#29947A"/>
</linearGradient>
<linearGradient id="paint3_linear_736_3655" x1="46.6458" y1="1.89856e-06" x2="3.28054" y2="77.2384" gradientUnits="userSpaceOnUse">
<stop stop-color="#12D4A6"/>
<stop offset="0.619792" stop-color="#29947A"/>
</linearGradient>
</defs>
</svg>
