<svg width="20" height="20" viewBox="0 0 20 20" fill="none" xmlns="http://www.w3.org/2000/svg">
<path d="M4.21964 18.9231L4.02455 19.9039L4.21964 18.9231ZM1.07686 15.7804L0.0960736 15.9755L1.07686 15.7804ZM16.8856 1.47231L17.357 0.590394L16.8856 1.47231ZM18.5277 3.11441L19.4096 2.64302L18.5277 3.11441ZM8.11441 1.47231L7.64302 0.590394L8.11441 1.47231ZM6.47231 3.11441L5.59039 2.64302L6.47231 3.11441ZM10 4C9.44771 4 9 4.44772 9 5C9 5.55228 9.44771 6 10 6V4ZM15 6C15.5523 6 16 5.55228 16 5C16 4.44772 15.5523 4 15 4V6ZM10 8C9.44771 8 9 8.44772 9 9C9 9.55229 9.44771 10 10 10V8ZM15 10C15.5523 10 16 9.55229 16 9C16 8.44772 15.5523 8 15 8V10ZM10 12C9.44771 12 9 12.4477 9 13C9 13.5523 9.44771 14 10 14V12ZM15 14C15.5523 14 16 13.5523 16 13C16 12.4477 15.5523 12 15 12V14ZM5 9.66667V19H7V9.66667H5ZM2 14V11.3333H0V14H2ZM6 18C5.02276 18 4.68018 17.9952 4.41473 17.9424L4.02455 19.9039C4.53189 20.0048 5.11862 20 6 20V18ZM0 14C0 14.8814 -0.00484359 15.4681 0.0960736 15.9755L2.05764 15.5853C2.00484 15.3198 2 14.9772 2 14H0ZM4.41473 17.9424C3.22466 17.7056 2.29436 16.7753 2.05764 15.5853L0.0960736 15.9755C0.490607 17.9589 2.0411 19.5094 4.02455 19.9039L4.41473 17.9424ZM4.33333 9C4.70152 9 5 9.29848 5 9.66667H7C7 8.19391 5.80609 7 4.33333 7V9ZM4.33333 7C1.9401 7 0 8.9401 0 11.3333H2C2 10.0447 3.04467 9 4.33333 9V7ZM18 7.5V11H20V7.5H18ZM11 18H6V20H11V18ZM7 19V7.5H5V19H7ZM18 11C18 12.9139 17.9979 14.2487 17.8625 15.2558C17.7309 16.2342 17.4903 16.7523 17.1213 17.1213L18.5355 18.5355C19.3381 17.733 19.6833 16.7225 19.8446 15.5223C20.0021 14.351 20 12.8573 20 11H18ZM11 20C12.8573 20 14.351 20.0021 15.5223 19.8446C16.7225 19.6833 17.733 19.3381 18.5355 18.5355L17.1213 17.1213C16.7523 17.4903 16.2342 17.7309 15.2558 17.8625C14.2487 17.9979 12.9139 18 11 18V20ZM12.5 2C13.6845 2 14.5103 2.00084 15.1522 2.05544C15.7816 2.10898 16.1419 2.20871 16.4142 2.35424L17.357 0.590394C16.7456 0.263606 16.0804 0.127174 15.3217 0.0626372C14.5753 -0.000843167 13.6501 0 12.5 0V2ZM20 7.5C20 6.3499 20.0008 5.42466 19.9374 4.67833C19.8728 3.91958 19.7364 3.25439 19.4096 2.64302L17.6458 3.58581C17.7913 3.85807 17.891 4.21836 17.9446 4.84784C17.9992 5.48974 18 6.31547 18 7.5H20ZM16.4142 2.35424C16.9375 2.63394 17.3661 3.06253 17.6458 3.58581L19.4096 2.64302C18.9434 1.77088 18.2291 1.05656 17.357 0.590394L16.4142 2.35424ZM12.5 0C11.3499 0 10.4247 -0.000843167 9.67833 0.0626372C8.91958 0.127174 8.25439 0.263606 7.64302 0.590394L8.58581 2.35424C8.85807 2.20871 9.21836 2.10898 9.84784 2.05544C10.4897 2.00084 11.3155 2 12.5 2V0ZM7 7.5C7 6.31547 7.00084 5.48974 7.05544 4.84784C7.10898 4.21836 7.20871 3.85807 7.35424 3.58581L5.59039 2.64302C5.26361 3.25439 5.12717 3.91958 5.06264 4.67833C4.99916 5.42466 5 6.3499 5 7.5H7ZM7.64302 0.590394C6.77088 1.05656 6.05656 1.77088 5.59039 2.64302L7.35424 3.58581C7.63394 3.06253 8.06253 2.63394 8.58581 2.35424L7.64302 0.590394ZM10 6H15V4H10V6ZM10 10H15V8H10V10ZM10 14H15V12H10V14Z" fill="white"/>
</svg>
