<svg width="116" height="116" viewBox="0 0 116 116" fill="none" xmlns="http://www.w3.org/2000/svg">
<path fill-rule="evenodd" clip-rule="evenodd" d="M22.8179 26.9748C23.3939 29.4962 24.1914 32.112 25.2047 34.7705C22.6168 35.0299 20.1633 35.4332 17.8819 35.9765C13.6807 36.9768 9.78274 38.518 6.68729 40.7518C3.56396 43.0057 0.937887 46.2233 0.199882 50.4845C-0.538123 54.7456 0.848611 58.6836 3.02641 61.8891C5.18475 65.066 8.32985 67.8715 11.9417 70.2745C12.6164 70.7234 13.3158 71.1638 14.0385 71.5951C21.0932 75.8383 30.4008 79.2058 40.6578 81.0471C52.2254 83.1236 63.2301 82.0121 71.5934 79.5519C72.0509 79.4173 72.5028 79.278 72.9486 79.1342C71.7202 84.4105 70.8845 89.4425 70.4914 93.9016C70.1074 98.2563 70.1149 102.388 70.7553 105.776C71.2396 108.338 72.4492 112.366 75.927 114.398C76.3911 114.683 76.8968 114.932 77.448 115.136C81.6406 116.69 85.4885 114.697 87.8788 112.908C90.4774 110.963 92.9814 108.091 95.3003 104.81C99.986 98.1811 104.716 88.7338 108.542 78.0323C112.368 67.3309 114.709 56.9983 115.305 48.8536C115.6 44.823 115.495 40.9843 114.733 37.7937C114.117 35.2172 112.739 31.7853 109.575 29.9345C109.091 29.6373 108.563 29.3776 107.989 29.1647C104.235 27.7736 100.644 29.0466 98.0542 30.6723C95.4095 32.3324 92.9155 34.8741 90.6304 37.8413C89.0279 39.9221 87.4278 42.3443 85.8608 45.0697C83.2991 38.4211 79.2452 30.9376 73.256 23.6709C66.8067 15.8459 59.5931 9.5059 52.6926 5.38758C51.6997 4.79047 50.713 4.23917 49.7359 3.73588C45.8859 1.75285 41.9269 0.382622 38.1453 0.0680845C34.3297 -0.249288 30.2865 0.497067 27.0308 3.27832L27.1435 3.41516C23.9351 6.1828 22.4567 10.1807 21.9399 14.0725C21.4141 18.0312 21.7881 22.4669 22.8179 26.9748ZM44.7356 14.2167C45.441 14.5801 46.1615 14.9807 46.8946 15.4178C52.396 18.7293 58.5858 24.0757 64.3387 31.0558C67.9763 35.4693 70.7562 39.9456 72.826 44.1404C66.0689 40.4626 57.5734 37.5514 48.3023 35.8871C44.6591 35.2331 41.0638 34.8017 37.5811 34.5859C35.8902 31.0092 34.6801 27.5242 33.9523 24.3383C33.1376 20.7722 32.9791 17.8098 33.2683 15.6318C33.5639 13.4061 34.2357 12.549 34.5391 12.2898C34.8282 12.0428 35.571 11.6137 37.3748 11.7637C39.2127 11.9166 41.7067 12.6566 44.7356 14.2167ZM42.4825 69.4896C33.3361 67.8477 25.451 64.9114 19.8371 61.5652C19.3236 61.256 18.8294 60.9434 18.3555 60.628C15.5139 58.7375 13.6374 56.9087 12.5884 55.3647C11.5589 53.8493 11.5525 52.9799 11.6181 52.6015C11.6836 52.223 11.9817 51.4083 13.4582 50.3428C14.9626 49.2571 17.3403 48.192 20.6456 47.4049C23.5696 46.7087 27.0011 46.282 30.7945 46.1807C32.6746 49.2995 34.8367 52.3769 37.2718 55.3314C43.0422 62.3327 49.8693 67.2379 56.6422 70.2772C52.2176 70.5651 47.4136 70.3748 42.4825 69.4896ZM46.4776 47.4445C55.6243 49.0865 63.5097 52.0229 69.1236 55.3693C69.6369 55.6784 70.1309 55.9909 70.6047 56.3061C73.4462 58.1966 75.3227 60.0255 76.3717 61.5695C76.5113 61.7749 76.632 61.9685 76.7364 62.1505C76.2485 62.2596 75.6957 62.3495 75.073 62.4098C72.7218 62.6375 69.7508 62.3976 66.4238 61.4911C59.7806 59.6812 52.2062 55.3455 46.0288 47.8505C45.8743 47.663 45.7211 47.475 45.5693 47.2865C45.8712 47.3374 46.174 47.39 46.4776 47.4445ZM99.7869 45.1182C101.296 43.158 102.595 41.8714 103.599 41.105C103.866 42.6445 103.964 44.9043 103.745 47.893C103.247 54.7007 101.212 63.9633 97.6397 73.9558C94.0673 83.9483 89.7778 92.3753 85.8612 97.9164C84.3826 100.008 83.0649 101.534 81.9766 102.559C81.7692 100.721 81.7592 98.1943 82.0374 95.0381C82.679 87.7614 84.7448 78.2808 88.0347 68.7599C88.2066 68.3869 88.3598 67.9943 88.4873 67.5825C88.7755 66.9568 88.9759 66.3289 89.118 65.744C92.5318 56.5975 96.3532 49.5769 99.7869 45.1182Z" fill="white"/>
</svg>
