<svg width="20" height="20" viewBox="0 0 20 20" fill="none" xmlns="http://www.w3.org/2000/svg">
<path d="M19 9V11C19 14.7712 19 16.6569 17.8284 17.8284C16.6569 19 14.7712 19 11 19H9C5.22876 19 3.34315 19 2.17157 17.8284C1 16.6569 1 14.7712 1 11V9C1 7.83023 0.999994 6.84189 1.03496 6C1.11271 4.1277 1.3634 2.97975 2.17157 2.17157C3.34315 1 5.22876 1 9 1H11C11.7355 1 12.3993 1 13 1.00869" stroke="white" stroke-width="2" stroke-linecap="round"/>
<path d="M5 10L8.66667 14L18 3" stroke="white" stroke-width="2" stroke-linecap="round" stroke-linejoin="round"/>
</svg>
