<svg width="199" height="55" viewBox="0 0 199 55" fill="none" xmlns="http://www.w3.org/2000/svg">
<rect x="0.5" y="0.5" width="198" height="54" rx="27" fill="#1F1F1F"/>
<path d="M57 23.791H21V18.1456C21 15.0809 23.6422 12.5001 26.7798 12.5001H51.2202C54.3578 12.5001 57 15.0809 57 18.1456V23.791Z" fill="#34A853"/>
<path d="M57 29H21V23C21 19.7429 23.6422 17 26.7798 17H51.2202C54.3578 17 57 19.7429 57 23V29Z" fill="#FBBC04"/>
<path d="M57 34H21V28C21 24.7429 23.6422 22 26.7798 22H51.2202C54.3578 22 57 24.7429 57 28V34Z" fill="#EA4335"/>
<path d="M21 25.2409L43.8493 30.4025C46.4795 31.0477 49.4384 30.4025 51.5753 28.7895L57 24.9183V37.0157C57 40.0804 54.3699 42.4999 51.2466 42.4999H26.7534C23.6301 42.4999 21 40.0804 21 37.0157V25.2409Z" fill="url(#paint0_linear_1819_24301)"/>
<path d="M69.195 21.5L72.705 12.192H74.33L77.853 21.5H76.28L75.422 19.108H71.626L70.768 21.5H69.195ZM73.134 14.935L72.107 17.782H74.941L73.914 14.935L73.563 13.869H73.485L73.134 14.935ZM79.6768 13.895C79.4168 13.895 79.1914 13.804 79.0008 13.622C78.8188 13.4313 78.7278 13.206 78.7278 12.946C78.7278 12.686 78.8188 12.465 79.0008 12.283C79.1914 12.101 79.4168 12.01 79.6768 12.01C79.9368 12.01 80.1578 12.101 80.3398 12.283C80.5304 12.465 80.6258 12.686 80.6258 12.946C80.6258 13.206 80.5304 13.4313 80.3398 13.622C80.1578 13.804 79.9368 13.895 79.6768 13.895ZM78.4158 24.438C78.1471 24.438 77.9044 24.4077 77.6878 24.347V22.995C77.7744 23.047 77.8741 23.086 77.9868 23.112C78.0908 23.1467 78.1948 23.164 78.2988 23.164C78.5501 23.164 78.7234 23.086 78.8188 22.93C78.9228 22.7827 78.9748 22.566 78.9748 22.28V14.87H80.3788V22.293C80.3788 23.0557 80.1924 23.6017 79.8198 23.931C79.4471 24.269 78.9791 24.438 78.4158 24.438ZM85.1773 21.708C84.4926 21.708 83.8903 21.552 83.3703 21.24C82.8503 20.928 82.4429 20.5077 82.1483 19.979C81.8536 19.4503 81.7063 18.8523 81.7063 18.185C81.7063 17.5263 81.8536 16.9327 82.1483 16.404C82.4429 15.8667 82.8503 15.442 83.3703 15.13C83.8903 14.818 84.4926 14.662 85.1773 14.662C85.8533 14.662 86.4513 14.818 86.9713 15.13C87.4913 15.442 87.8986 15.8667 88.1933 16.404C88.4879 16.9327 88.6353 17.5263 88.6353 18.185C88.6353 18.8523 88.4879 19.4503 88.1933 19.979C87.8986 20.5077 87.4913 20.928 86.9713 21.24C86.4513 21.552 85.8533 21.708 85.1773 21.708ZM85.1773 20.421C85.5413 20.421 85.8793 20.3343 86.1913 20.161C86.5033 19.979 86.7546 19.7233 86.9453 19.394C87.1446 19.056 87.2443 18.653 87.2443 18.185C87.2443 17.717 87.1446 17.3183 86.9453 16.989C86.7546 16.651 86.5033 16.3953 86.1913 16.222C85.8793 16.04 85.5413 15.949 85.1773 15.949C84.8133 15.949 84.4709 16.04 84.1503 16.222C83.8383 16.3953 83.5826 16.651 83.3833 16.989C83.1926 17.3183 83.0973 17.717 83.0973 18.185C83.0973 18.653 83.1926 19.056 83.3833 19.394C83.5826 19.7233 83.8383 19.979 84.1503 20.161C84.4709 20.3343 84.8133 20.421 85.1773 20.421ZM92.2699 21.708C91.4552 21.708 90.8399 21.4653 90.4239 20.98C90.0166 20.486 89.8129 19.8187 89.8129 18.978V14.87H91.2169V18.783C91.2169 19.3463 91.3469 19.7623 91.6069 20.031C91.8756 20.291 92.2092 20.421 92.6079 20.421C92.9632 20.421 93.2709 20.33 93.5309 20.148C93.7996 19.9573 94.0032 19.7147 94.1419 19.42C94.2892 19.1167 94.3629 18.7873 94.3629 18.432V14.87H95.7539V21.5H94.4409V20.603H94.3629C94.1722 20.915 93.8862 21.1793 93.5049 21.396C93.1322 21.604 92.7206 21.708 92.2699 21.708ZM98.1714 19.576V16.092H97.0144V14.87H98.1714V12.998H99.5754V14.87H101.2V16.092H99.5754V19.277C99.5754 19.6063 99.6404 19.8577 99.7704 20.031C99.9091 20.2043 100.139 20.291 100.459 20.291C100.624 20.291 100.763 20.2693 100.875 20.226C100.997 20.1827 101.118 20.122 101.239 20.044V21.409C101.092 21.4697 100.936 21.5173 100.771 21.552C100.607 21.5867 100.412 21.604 100.186 21.604C99.5711 21.604 99.0814 21.4263 98.7174 21.071C98.3534 20.707 98.1714 20.2087 98.1714 19.576ZM105.323 21.708C104.673 21.708 104.092 21.5563 103.581 21.253C103.069 20.9497 102.666 20.5337 102.372 20.005C102.086 19.4763 101.943 18.874 101.943 18.198C101.943 17.5653 102.081 16.9803 102.359 16.443C102.636 15.9057 103.022 15.4767 103.516 15.156C104.018 14.8267 104.595 14.662 105.245 14.662C105.929 14.662 106.51 14.8093 106.987 15.104C107.472 15.3987 107.84 15.8017 108.092 16.313C108.343 16.8243 108.469 17.4007 108.469 18.042C108.469 18.1373 108.464 18.224 108.456 18.302C108.456 18.38 108.451 18.4407 108.443 18.484H103.321C103.39 19.1427 103.62 19.6367 104.01 19.966C104.408 20.2953 104.859 20.46 105.362 20.46C105.812 20.46 106.185 20.3603 106.48 20.161C106.774 19.953 107.008 19.6973 107.182 19.394L108.339 19.953C108.053 20.473 107.663 20.8977 107.169 21.227C106.675 21.5477 106.059 21.708 105.323 21.708ZM105.258 15.858C104.79 15.858 104.391 16.001 104.062 16.287C103.732 16.573 103.511 16.9543 103.399 17.431H107.078C107.06 17.2057 106.987 16.9717 106.857 16.729C106.727 16.4863 106.527 16.2827 106.259 16.118C105.999 15.9447 105.665 15.858 105.258 15.858ZM109.771 21.5V14.87H111.097V15.845H111.175C111.322 15.507 111.574 15.2297 111.929 15.013C112.293 14.7877 112.683 14.675 113.099 14.675C113.281 14.675 113.433 14.688 113.554 14.714C113.684 14.74 113.801 14.7703 113.905 14.805V16.261C113.74 16.1917 113.571 16.1353 113.398 16.092C113.233 16.0487 113.06 16.027 112.878 16.027C112.549 16.027 112.254 16.118 111.994 16.3C111.743 16.4733 111.543 16.7117 111.396 17.015C111.249 17.3097 111.175 17.6347 111.175 17.99V21.5H109.771ZM120.103 21.708C119.626 21.708 119.202 21.617 118.829 21.435C118.456 21.2443 118.166 20.98 117.958 20.642C117.75 20.304 117.646 19.9183 117.646 19.485C117.646 19.017 117.767 18.6183 118.01 18.289C118.261 17.951 118.595 17.6953 119.011 17.522C119.427 17.3487 119.886 17.262 120.389 17.262C120.805 17.262 121.169 17.301 121.481 17.379C121.802 17.457 122.044 17.5393 122.209 17.626V17.275C122.209 16.8417 122.053 16.495 121.741 16.235C121.429 15.975 121.026 15.845 120.532 15.845C120.194 15.845 119.873 15.923 119.57 16.079C119.267 16.2263 119.024 16.43 118.842 16.69L117.88 15.949C118.166 15.5503 118.543 15.2383 119.011 15.013C119.488 14.779 120.008 14.662 120.571 14.662C121.533 14.662 122.274 14.9003 122.794 15.377C123.314 15.845 123.574 16.5037 123.574 17.353V21.5H122.209V20.681H122.131C121.958 20.9497 121.698 21.188 121.351 21.396C121.004 21.604 120.588 21.708 120.103 21.708ZM120.35 20.564C120.714 20.564 121.035 20.4773 121.312 20.304C121.589 20.1307 121.806 19.9053 121.962 19.628C122.127 19.342 122.209 19.0343 122.209 18.705C122.01 18.5923 121.776 18.5013 121.507 18.432C121.238 18.354 120.952 18.315 120.649 18.315C120.077 18.315 119.67 18.432 119.427 18.666C119.184 18.8913 119.063 19.1687 119.063 19.498C119.063 19.81 119.18 20.0657 119.414 20.265C119.648 20.4643 119.96 20.564 120.35 20.564ZM127.525 21.708C126.71 21.708 126.095 21.4653 125.679 20.98C125.271 20.486 125.068 19.8187 125.068 18.978V14.87H126.472V18.783C126.472 19.3463 126.602 19.7623 126.862 20.031C127.13 20.291 127.464 20.421 127.863 20.421C128.218 20.421 128.526 20.33 128.786 20.148C129.054 19.9573 129.258 19.7147 129.397 19.42C129.544 19.1167 129.618 18.7873 129.618 18.432V14.87H131.009V21.5H129.696V20.603H129.618C129.427 20.915 129.141 21.1793 128.76 21.396C128.387 21.604 127.975 21.708 127.525 21.708Z" fill="white"/>
<path d="M76.14 41.772C75.2673 41.772 74.4457 41.6133 73.675 41.296C72.9157 40.9787 72.2413 40.5367 71.652 39.97C71.0627 39.392 70.598 38.7177 70.258 37.947C69.9293 37.165 69.765 36.3207 69.765 35.414C69.765 34.5073 69.9293 33.6687 70.258 32.898C70.598 32.116 71.057 31.4417 71.635 30.875C72.2243 30.297 72.9043 29.8493 73.675 29.532C74.4457 29.2147 75.2673 29.056 76.14 29.056C77.0693 29.056 77.925 29.2203 78.707 29.549C79.5003 29.8777 80.1633 30.3367 80.696 30.926L79.404 32.201C79.0073 31.759 78.5313 31.419 77.976 31.181C77.432 30.943 76.82 30.824 76.14 30.824C75.3353 30.824 74.593 31.0167 73.913 31.402C73.233 31.776 72.6833 32.3087 72.264 33C71.856 33.68 71.652 34.4847 71.652 35.414C71.652 36.3433 71.8617 37.1537 72.281 37.845C72.7003 38.525 73.25 39.0577 73.93 39.443C74.61 39.817 75.3523 40.004 76.157 40.004C76.8937 40.004 77.5623 39.868 78.163 39.596C78.7637 39.3127 79.2453 38.916 79.608 38.406C79.982 37.896 80.2087 37.284 80.288 36.57H76.123V34.921H82.039C82.107 35.227 82.141 35.55 82.141 35.89V35.907C82.141 37.0857 81.8803 38.117 81.359 39.001C80.849 39.8737 80.1407 40.5537 79.234 41.041C78.3273 41.5283 77.296 41.772 76.14 41.772ZM87.6149 41.772C86.7195 41.772 85.9319 41.568 85.2519 41.16C84.5719 40.752 84.0392 40.2023 83.6539 39.511C83.2685 38.8197 83.0759 38.0377 83.0759 37.165C83.0759 36.3037 83.2685 35.5273 83.6539 34.836C84.0392 34.1333 84.5719 33.578 85.2519 33.17C85.9319 32.762 86.7195 32.558 87.6149 32.558C88.4989 32.558 89.2809 32.762 89.9609 33.17C90.6409 33.578 91.1735 34.1333 91.5589 34.836C91.9442 35.5273 92.1369 36.3037 92.1369 37.165C92.1369 38.0377 91.9442 38.8197 91.5589 39.511C91.1735 40.2023 90.6409 40.752 89.9609 41.16C89.2809 41.568 88.4989 41.772 87.6149 41.772ZM87.6149 40.089C88.0909 40.089 88.5329 39.9757 88.9409 39.749C89.3489 39.511 89.6775 39.1767 89.9269 38.746C90.1875 38.304 90.3179 37.777 90.3179 37.165C90.3179 36.553 90.1875 36.0317 89.9269 35.601C89.6775 35.159 89.3489 34.8247 88.9409 34.598C88.5329 34.36 88.0909 34.241 87.6149 34.241C87.1389 34.241 86.6912 34.36 86.2719 34.598C85.8639 34.8247 85.5295 35.159 85.2689 35.601C85.0195 36.0317 84.8949 36.553 84.8949 37.165C84.8949 37.777 85.0195 38.304 85.2689 38.746C85.5295 39.1767 85.8639 39.511 86.2719 39.749C86.6912 39.9757 87.1389 40.089 87.6149 40.089ZM97.9078 41.772C97.0125 41.772 96.2248 41.568 95.5448 41.16C94.8648 40.752 94.3322 40.2023 93.9468 39.511C93.5615 38.8197 93.3688 38.0377 93.3688 37.165C93.3688 36.3037 93.5615 35.5273 93.9468 34.836C94.3322 34.1333 94.8648 33.578 95.5448 33.17C96.2248 32.762 97.0125 32.558 97.9078 32.558C98.7918 32.558 99.5738 32.762 100.254 33.17C100.934 33.578 101.467 34.1333 101.852 34.836C102.237 35.5273 102.43 36.3037 102.43 37.165C102.43 38.0377 102.237 38.8197 101.852 39.511C101.467 40.2023 100.934 40.752 100.254 41.16C99.5738 41.568 98.7918 41.772 97.9078 41.772ZM97.9078 40.089C98.3838 40.089 98.8258 39.9757 99.2338 39.749C99.6418 39.511 99.9705 39.1767 100.22 38.746C100.481 38.304 100.611 37.777 100.611 37.165C100.611 36.553 100.481 36.0317 100.22 35.601C99.9705 35.159 99.6418 34.8247 99.2338 34.598C98.8258 34.36 98.3838 34.241 97.9078 34.241C97.4318 34.241 96.9842 34.36 96.5648 34.598C96.1568 34.8247 95.8225 35.159 95.5618 35.601C95.3125 36.0317 95.1878 36.553 95.1878 37.165C95.1878 37.777 95.3125 38.304 95.5618 38.746C95.8225 39.1767 96.1568 39.511 96.5648 39.749C96.9842 39.9757 97.4318 40.089 97.9078 40.089ZM108.031 45.444C107.271 45.444 106.614 45.3193 106.059 45.07C105.515 44.832 105.073 44.5203 104.733 44.135C104.393 43.761 104.149 43.3757 104.002 42.979L105.702 42.265C105.883 42.7183 106.172 43.0867 106.569 43.37C106.977 43.6647 107.464 43.812 108.031 43.812C108.824 43.812 109.447 43.574 109.901 43.098C110.365 42.622 110.598 41.9477 110.598 41.075V40.242H110.496C110.224 40.65 109.844 40.9787 109.357 41.228C108.881 41.466 108.337 41.585 107.725 41.585C106.988 41.585 106.314 41.398 105.702 41.024C105.09 40.65 104.597 40.1287 104.223 39.46C103.849 38.78 103.662 37.9867 103.662 37.08C103.662 36.162 103.849 35.3687 104.223 34.7C104.597 34.02 105.09 33.493 105.702 33.119C106.314 32.745 106.988 32.558 107.725 32.558C108.337 32.558 108.881 32.6827 109.357 32.932C109.844 33.1813 110.224 33.51 110.496 33.918H110.598V32.83H112.349V41.041C112.349 41.9817 112.162 42.7807 111.788 43.438C111.425 44.0953 110.921 44.594 110.275 44.934C109.629 45.274 108.881 45.444 108.031 45.444ZM108.048 39.919C108.501 39.919 108.92 39.8113 109.306 39.596C109.691 39.3693 110.003 39.0463 110.241 38.627C110.479 38.1963 110.598 37.6807 110.598 37.08C110.598 36.4567 110.479 35.9353 110.241 35.516C110.003 35.0853 109.691 34.7623 109.306 34.547C108.92 34.3317 108.501 34.224 108.048 34.224C107.594 34.224 107.169 34.3373 106.773 34.564C106.387 34.7793 106.076 35.0967 105.838 35.516C105.6 35.9353 105.481 36.4567 105.481 37.08C105.481 37.692 105.6 38.2133 105.838 38.644C106.076 39.0633 106.387 39.3807 106.773 39.596C107.169 39.8113 107.594 39.919 108.048 39.919ZM114.514 41.5V29.328H116.35V41.5H114.514ZM122.392 41.772C121.542 41.772 120.783 41.5737 120.114 41.177C119.446 40.7803 118.919 40.2363 118.533 39.545C118.159 38.8537 117.972 38.066 117.972 37.182C117.972 36.3547 118.154 35.5897 118.516 34.887C118.879 34.1843 119.383 33.6233 120.029 33.204C120.687 32.7733 121.44 32.558 122.29 32.558C123.186 32.558 123.945 32.7507 124.568 33.136C125.203 33.5213 125.685 34.0483 126.013 34.717C126.342 35.3857 126.506 36.1393 126.506 36.978C126.506 37.1027 126.501 37.216 126.489 37.318C126.489 37.42 126.484 37.4993 126.472 37.556H119.774C119.865 38.4173 120.165 39.0633 120.675 39.494C121.197 39.9247 121.786 40.14 122.443 40.14C123.033 40.14 123.52 40.0097 123.905 39.749C124.291 39.477 124.597 39.1427 124.823 38.746L126.336 39.477C125.962 40.157 125.452 40.7123 124.806 41.143C124.16 41.5623 123.356 41.772 122.392 41.772ZM122.307 34.122C121.695 34.122 121.174 34.309 120.743 34.683C120.313 35.057 120.024 35.5557 119.876 36.179H124.687C124.665 35.8843 124.568 35.5783 124.398 35.261C124.228 34.9437 123.968 34.6773 123.616 34.462C123.276 34.2353 122.84 34.122 122.307 34.122ZM133.979 41.5L130.715 29.328H132.789L134.727 37.233L134.931 38.287H135.033L135.288 37.233L137.736 29.328H139.606L141.952 37.233L142.207 38.27H142.309L142.513 37.233L144.451 29.328H146.508L143.295 41.5H141.323L138.994 33.425L138.722 32.286H138.62L138.331 33.425L135.9 41.5H133.979ZM149.922 41.772C149.299 41.772 148.743 41.653 148.256 41.415C147.769 41.1657 147.389 40.82 147.117 40.378C146.845 39.936 146.709 39.4317 146.709 38.865C146.709 38.253 146.868 37.7317 147.185 37.301C147.514 36.859 147.95 36.5247 148.494 36.298C149.038 36.0713 149.639 35.958 150.296 35.958C150.84 35.958 151.316 36.009 151.724 36.111C152.143 36.213 152.461 36.3207 152.676 36.434V35.975C152.676 35.4083 152.472 34.955 152.064 34.615C151.656 34.275 151.129 34.105 150.483 34.105C150.041 34.105 149.622 34.207 149.225 34.411C148.828 34.6037 148.511 34.87 148.273 35.21L147.015 34.241C147.389 33.7197 147.882 33.3117 148.494 33.017C149.117 32.711 149.797 32.558 150.534 32.558C151.792 32.558 152.761 32.8697 153.441 33.493C154.121 34.105 154.461 34.9663 154.461 36.077V41.5H152.676V40.429H152.574C152.347 40.7803 152.007 41.092 151.554 41.364C151.101 41.636 150.557 41.772 149.922 41.772ZM150.245 40.276C150.721 40.276 151.14 40.1627 151.503 39.936C151.866 39.7093 152.149 39.4147 152.353 39.052C152.568 38.678 152.676 38.2757 152.676 37.845C152.415 37.6977 152.109 37.5787 151.758 37.488C151.407 37.386 151.033 37.335 150.636 37.335C149.888 37.335 149.355 37.488 149.038 37.794C148.721 38.0887 148.562 38.4513 148.562 38.882C148.562 39.29 148.715 39.6243 149.021 39.885C149.327 40.1457 149.735 40.276 150.245 40.276ZM156.499 41.5V29.328H158.335V41.5H156.499ZM160.517 41.5V29.328H162.353V41.5H160.517ZM168.395 41.772C167.545 41.772 166.786 41.5737 166.117 41.177C165.449 40.7803 164.922 40.2363 164.536 39.545C164.162 38.8537 163.975 38.066 163.975 37.182C163.975 36.3547 164.157 35.5897 164.519 34.887C164.882 34.1843 165.386 33.6233 166.032 33.204C166.69 32.7733 167.443 32.558 168.293 32.558C169.189 32.558 169.948 32.7507 170.571 33.136C171.206 33.5213 171.688 34.0483 172.016 34.717C172.345 35.3857 172.509 36.1393 172.509 36.978C172.509 37.1027 172.504 37.216 172.492 37.318C172.492 37.42 172.487 37.4993 172.475 37.556H165.777C165.868 38.4173 166.168 39.0633 166.678 39.494C167.2 39.9247 167.789 40.14 168.446 40.14C169.036 40.14 169.523 40.0097 169.908 39.749C170.294 39.477 170.6 39.1427 170.826 38.746L172.339 39.477C171.965 40.157 171.455 40.7123 170.809 41.143C170.163 41.5623 169.359 41.772 168.395 41.772ZM168.31 34.122C167.698 34.122 167.177 34.309 166.746 34.683C166.316 35.057 166.027 35.5557 165.879 36.179H170.69C170.668 35.8843 170.571 35.5783 170.401 35.261C170.231 34.9437 169.971 34.6773 169.619 34.462C169.279 34.2353 168.843 34.122 168.31 34.122ZM174.882 38.984V34.428H173.369V32.83H174.882V30.382H176.718V32.83H178.843V34.428H176.718V38.593C176.718 39.0237 176.803 39.3523 176.973 39.579C177.154 39.8057 177.454 39.919 177.874 39.919C178.089 39.919 178.27 39.8907 178.418 39.834C178.576 39.7773 178.735 39.698 178.894 39.596V41.381C178.701 41.4603 178.497 41.5227 178.282 41.568C178.066 41.6133 177.811 41.636 177.517 41.636C176.712 41.636 176.072 41.4037 175.596 40.939C175.12 40.463 174.882 39.8113 174.882 38.984Z" fill="white"/>
<rect x="0.5" y="0.5" width="198" height="54" rx="27" stroke="#747775"/>
<defs>
<linearGradient id="paint0_linear_1819_24301" x1="37.2843" y1="34.0448" x2="18.7823" y2="55.7227" gradientUnits="userSpaceOnUse">
<stop stop-color="#4285F4"/>
<stop offset="1" stop-color="#1B74E8"/>
</linearGradient>
</defs>
</svg>
