<svg width="342" height="76" viewBox="0 0 342 76" class="logo" fill="none" xmlns="http://www.w3.org/2000/svg">
                <path fill-rule="evenodd" clip-rule="evenodd"
                    d="M14.724 17.4064C15.0957 19.0334 15.6103 20.7213 16.2642 22.4368C14.5942 22.6042 13.011 22.8645 11.5389 23.215C8.8279 23.8605 6.31264 24.855 4.3152 26.2964C2.29976 27.7508 0.605203 29.8271 0.12898 32.5768C-0.347242 35.3264 0.547594 37.8675 1.95289 39.936C3.34563 41.986 5.37511 43.7964 7.70577 45.3469C8.14114 45.6366 8.59246 45.9208 9.05882 46.1991C13.6111 48.9372 19.6171 51.1101 26.2358 52.2983C33.7001 53.6383 40.8013 52.921 46.198 51.3335C46.4932 51.2466 46.7848 51.1568 47.0725 51.0639C46.2798 54.4686 45.7406 57.7157 45.4869 60.5931C45.2391 63.4032 45.244 66.0692 45.6572 68.2551C45.9697 69.9086 46.7502 72.5079 48.9944 73.8191C49.2939 74.0031 49.6202 74.1637 49.9759 74.2955C52.6813 75.298 55.1643 74.0121 56.7067 72.8577C58.3835 71.6025 59.9993 69.7493 61.4956 67.6323C64.5193 63.3546 67.5716 57.2584 70.0404 50.3529C72.5091 43.4475 74.0198 36.78 74.4044 31.5244C74.5947 28.9235 74.5271 26.4465 74.035 24.3876C73.6376 22.7251 72.7488 20.5105 70.7071 19.3162C70.3945 19.1244 70.054 18.9569 69.6833 18.8195C67.2608 17.9218 64.9441 18.7433 63.2727 19.7923C61.5661 20.8635 59.9568 22.5037 58.4823 24.4184C57.4482 25.7611 56.4156 27.3241 55.4045 29.0827C53.7515 24.7925 51.1356 19.9635 47.2709 15.2744C43.1092 10.2251 38.4544 6.13399 34.0016 3.47652C33.3609 3.09121 32.7243 2.73546 32.0937 2.4107C29.6094 1.13109 27.0547 0.2469 24.6145 0.0439338C22.1524 -0.160861 19.5433 0.320749 17.4425 2.11544L17.5153 2.20374C15.4449 3.98966 14.4909 6.56945 14.1574 9.08076C13.8182 11.6353 14.0595 14.4975 14.724 17.4064ZM28.8671 9.17383C29.3223 9.40828 29.7873 9.66682 30.2603 9.94883C33.8103 12.0857 37.8044 15.5357 41.5167 20.0398C43.8639 22.8877 45.6578 25.7762 46.9934 28.483C42.6331 26.1098 37.1511 24.2313 31.1687 23.1573C28.8178 22.7353 26.4978 22.4569 24.2504 22.3177C23.1594 20.0097 22.3785 17.7609 21.9088 15.7051C21.3831 13.404 21.2809 11.4923 21.4675 10.0869C21.6582 8.65071 22.0917 8.09763 22.2875 7.93038C22.4741 7.771 22.9533 7.49412 24.1173 7.59093C25.3033 7.68958 26.9126 8.1671 28.8671 9.17383ZM27.4133 44.8405C21.5112 43.781 16.4231 41.8862 12.8006 39.727C12.4692 39.5275 12.1503 39.3257 11.8445 39.1222C10.0108 37.9023 8.79999 36.7222 8.1231 35.7259C7.45875 34.748 7.45464 34.187 7.49694 33.9428C7.53923 33.6986 7.73156 33.1729 8.68434 32.4853C9.65512 31.7848 11.1894 31.0975 13.3223 30.5896C15.2091 30.1403 17.4233 29.865 19.8712 29.7996C21.0844 31.8121 22.4795 33.7979 24.0508 35.7044C27.7744 40.2222 32.1798 43.3875 36.5503 45.3487C33.6951 45.5344 30.5952 45.4117 27.4133 44.8405ZM29.9912 30.6152C35.8934 31.6747 40.9817 33.5695 44.6043 35.7289C44.9355 35.9283 45.2543 36.13 45.56 36.3334C47.3936 37.5533 48.6045 38.7334 49.2813 39.7297C49.3714 39.8623 49.4493 39.9872 49.5167 40.1047C49.2018 40.1751 48.8451 40.2331 48.4433 40.272C46.9261 40.4189 45.009 40.2641 42.8621 39.6792C38.5754 38.5113 33.6878 35.7135 29.7016 30.8771C29.6019 30.7561 29.503 30.6348 29.4051 30.5132C29.5999 30.546 29.7953 30.58 29.9912 30.6152ZM64.3908 29.114C65.3649 27.8491 66.203 27.0189 66.8505 26.5243C67.0228 27.5178 67.0859 28.976 66.9448 30.9045C66.6233 35.2975 65.3104 41.2745 63.0052 47.7224C60.7001 54.1704 57.9321 59.6082 55.4048 63.1838C54.4506 64.5337 53.6004 65.5183 52.8981 66.1798C52.7643 64.9933 52.7578 63.3631 52.9374 61.3265C53.3513 56.6309 54.6844 50.5133 56.8073 44.3696C56.9182 44.1289 57.017 43.8756 57.0994 43.6099C57.2853 43.2061 57.4146 42.8009 57.5064 42.4235C59.7092 36.5214 62.1751 31.9911 64.3908 29.114Z"
                    fill="white" />
                <path
                    d="M85.6035 61.5914C85.1564 61.5914 84.7839 61.442 84.4859 61.1434C84.1879 60.8448 84.0389 60.4715 84.0389 60.0236V11.4224C84.0389 10.5265 84.3369 9.77996 84.9329 9.18271C85.5786 8.53569 86.3485 8.21218 87.2425 8.21218H100.504C103.633 8.21218 106.514 8.98363 109.146 10.5265C111.828 12.0694 113.939 14.1598 115.479 16.7976C117.068 19.4355 117.863 22.2973 117.863 25.3831C117.863 28.5187 117.068 31.4054 115.479 34.0432C113.939 36.6811 111.828 38.7714 109.146 40.3143C106.514 41.8572 103.633 42.6287 100.504 42.6287H93.1282V60.0236C93.1282 60.4715 92.9792 60.8448 92.6812 61.1434C92.3832 61.442 92.0107 61.5914 91.5637 61.5914H85.6035ZM100.131 34.0432C102.516 34.0432 104.552 33.1971 106.241 31.5049C107.929 29.8127 108.774 27.7721 108.774 25.3831C108.774 23.0439 107.929 21.0282 106.241 19.3359C104.552 17.6437 102.516 16.7976 100.131 16.7976H93.1282V34.0432H100.131Z"
                    fill="white" />
                <path
                    d="M132.054 62.5619C127.882 62.5619 124.48 61.3923 121.847 59.053C119.264 56.664 117.973 53.5783 117.973 49.7957C117.973 46.3615 119.165 43.5246 121.549 41.2849C123.933 38.9954 127.286 37.5023 131.607 36.8055C132.7 36.706 133.743 36.5566 134.736 36.3576C138.213 35.9594 140.324 35.6608 141.069 35.4617C142.907 35.1631 143.825 34.1179 143.825 32.3261C143.825 30.4846 143.056 29.0164 141.516 27.9214C140.026 26.7767 138.138 26.2043 135.854 26.2043C131.831 26.2043 128.9 27.6726 127.062 30.609C126.665 31.2561 126.193 31.5796 125.647 31.5796C125.25 31.5796 124.927 31.48 124.678 31.2809L120.506 28.444C120.059 28.1454 119.836 27.7223 119.836 27.1749C119.836 27.0255 119.885 26.8016 119.985 26.5029C121.425 23.7656 123.561 21.6503 126.392 20.1572C129.223 18.6143 132.427 17.8428 136.003 17.8428C139.281 17.8428 142.162 18.465 144.645 19.7092C147.128 20.9535 149.041 22.7204 150.382 25.0098C151.772 27.2993 152.468 29.9371 152.468 32.9234V60.0236C152.468 60.4715 152.319 60.8448 152.021 61.1434C151.723 61.442 151.35 61.5914 150.903 61.5914H145.837C145.39 61.5914 145.018 61.4669 144.719 61.2181C144.421 60.9194 144.272 60.5213 144.272 60.0236V57.112C140.845 60.7453 136.773 62.5619 132.054 62.5619ZM132.725 54.5737C134.662 54.5737 136.499 54.076 138.238 53.0806C139.976 52.0851 141.367 50.7911 142.41 49.1984C143.503 47.556 144.049 45.8389 144.049 44.0471V42.554L138.461 43.3752C135.432 43.7236 133.47 43.9974 132.576 44.1965C128.503 44.943 126.466 46.7099 126.466 49.4971C126.466 51.0399 127.038 52.2842 128.18 53.2299C129.322 54.1257 130.837 54.5737 132.725 54.5737Z"
                    fill="white" />
                <path
                    d="M160.007 76C159.56 76 159.188 75.8507 158.89 75.5521C158.592 75.2534 158.443 74.8802 158.443 74.4322V20.3811C158.443 19.9332 158.592 19.5599 158.89 19.2613C159.188 18.9627 159.56 18.8134 160.007 18.8134H164.85C165.297 18.8134 165.669 18.9627 165.967 19.2613C166.265 19.5599 166.414 19.9332 166.414 20.3811V23.7407C167.706 21.7996 169.295 20.3314 171.182 19.3359C173.12 18.3405 175.181 17.8428 177.366 17.8428C180.297 17.8428 183.028 18.6392 185.561 20.2318C188.144 21.7747 190.181 23.8651 191.671 26.5029C193.21 29.1408 193.98 31.9777 193.98 35.0138V45.391C193.98 48.427 193.235 51.2639 191.745 53.9018C190.255 56.5396 188.244 58.6549 185.71 60.2475C183.177 61.7904 180.396 62.5619 177.366 62.5619C175.528 62.5619 173.74 62.1886 172.002 61.442C170.313 60.6457 168.774 59.5259 167.383 58.0825V74.4322C167.383 74.8802 167.234 75.2534 166.936 75.5521C166.638 75.8507 166.265 76 165.818 76H160.007ZM176.249 53.9764C178.682 53.9764 180.744 53.1303 182.432 51.4381C184.171 49.6961 185.04 47.6058 185.04 45.167V35.2377C185.04 32.799 184.171 30.7335 182.432 29.0413C180.744 27.2993 178.682 26.4283 176.249 26.4283C173.815 26.4283 171.729 27.2993 169.99 29.0413C168.252 30.7335 167.383 32.799 167.383 35.2377V45.167C167.383 47.6058 168.252 49.6961 169.99 51.4381C171.729 53.1303 173.815 53.9764 176.249 53.9764Z"
                    fill="white" />
                <path
                    d="M204.969 13.8114C204.522 13.8114 204.149 13.6621 203.851 13.3635C203.553 13.0648 203.404 12.6916 203.404 12.2436V4.10609C203.404 3.65815 203.553 3.28487 203.851 2.98625C204.149 2.68762 204.522 2.53831 204.969 2.53831H210.035C210.482 2.53831 210.855 2.68762 211.153 2.98625C211.451 3.28487 211.6 3.65815 211.6 4.10609V12.2436C211.6 12.6916 211.451 13.0648 211.153 13.3635C210.855 13.6621 210.482 13.8114 210.035 13.8114H204.969ZM206.757 61.5914C205.714 61.5914 204.82 61.243 204.075 60.5462C203.379 59.7996 203.032 58.9037 203.032 57.8585V27.3242H196.997C196.55 27.3242 196.178 27.1749 195.879 26.8762C195.581 26.5776 195.432 26.2043 195.432 25.7564V20.3811C195.432 19.9332 195.581 19.5599 195.879 19.2613C196.178 18.9627 196.55 18.8134 196.997 18.8134H208.247C209.29 18.8134 210.159 19.1866 210.855 19.9332C211.6 20.63 211.972 21.501 211.972 22.5462V53.0806H218.007C218.454 53.0806 218.826 53.2299 219.124 53.5285C219.422 53.8271 219.571 54.2004 219.571 54.6483V60.0236C219.571 60.4715 219.422 60.8448 219.124 61.1434C218.826 61.442 218.454 61.5914 218.007 61.5914H206.757Z"
                    fill="white" />
                <path
                    d="M228.64 61.5914C227.746 61.5914 226.976 61.2927 226.33 60.6955C225.734 60.0485 225.436 59.277 225.436 58.3811V13.0648H218.656C218.209 13.0648 217.837 12.9155 217.539 12.6169C217.241 12.3183 217.092 11.945 217.092 11.4971V5.97249C217.092 5.52456 217.241 5.15128 217.539 4.85265C217.837 4.55403 218.209 4.40471 218.656 4.40471H231.173C232.067 4.40471 232.812 4.72822 233.408 5.37525C234.054 5.97249 234.376 6.71905 234.376 7.61493V52.9312H241.156C241.603 52.9312 241.976 53.0805 242.274 53.3792C242.572 53.6778 242.721 54.0511 242.721 54.499V60.0236C242.721 60.4715 242.572 60.8448 242.274 61.1434C241.976 61.442 241.603 61.5914 241.156 61.5914H228.64Z"
                    fill="white" />
                <path
                    d="M251.727 61.5914C250.833 61.5914 250.063 61.2927 249.417 60.6955C248.821 60.0485 248.523 59.277 248.523 58.3811V13.0648H241.743C241.296 13.0648 240.924 12.9155 240.626 12.6169C240.328 12.3183 240.179 11.945 240.179 11.4971V5.97249C240.179 5.52456 240.328 5.15128 240.626 4.85265C240.924 4.55403 241.296 4.40471 241.743 4.40471H254.26C255.154 4.40471 255.899 4.72822 256.495 5.37525C257.141 5.97249 257.463 6.71905 257.463 7.61493V52.9312H264.243C264.69 52.9312 265.063 53.0805 265.361 53.3792C265.659 53.6778 265.808 54.0511 265.808 54.499V60.0236C265.808 60.4715 265.659 60.8448 265.361 61.1434C265.063 61.442 264.69 61.5914 264.243 61.5914H251.727Z"
                    fill="white" />
                <path
                    d="M284.201 62.5619C280.973 62.5619 277.993 61.7904 275.261 60.2475C272.579 58.6549 270.443 56.5147 268.854 53.8271C267.264 51.1395 266.47 48.2279 266.47 45.0923V35.3124C266.47 32.1768 267.264 29.2652 268.854 26.5776C270.443 23.89 272.579 21.7747 275.261 20.2318C277.993 18.6392 280.973 17.8428 284.201 17.8428C287.43 17.8428 290.385 18.6392 293.067 20.2318C295.799 21.7747 297.959 23.89 299.549 26.5776C301.138 29.2652 301.933 32.1768 301.933 35.3124V45.0923C301.933 48.2279 301.138 51.1395 299.549 53.8271C297.959 56.5147 295.799 58.6549 293.067 60.2475C290.385 61.7904 287.43 62.5619 284.201 62.5619ZM284.201 53.9018C286.635 53.9018 288.696 53.0557 290.385 51.3635C292.123 49.6215 292.992 47.5311 292.992 45.0923V35.3124C292.992 32.8736 292.123 30.8081 290.385 29.1159C288.696 27.3739 286.635 26.5029 284.201 26.5029C281.767 26.5029 279.681 27.3739 277.943 29.1159C276.254 30.8081 275.41 32.8736 275.41 35.3124V45.0923C275.41 47.5311 276.254 49.6215 277.943 51.3635C279.681 53.0557 281.767 53.9018 284.201 53.9018Z"
                    fill="white" />
                <path
                    d="M308.474 61.5914C308.027 61.5914 307.654 61.442 307.356 61.1434C307.058 60.8448 306.909 60.4715 306.909 60.0236V20.3811C306.909 19.9332 307.058 19.5599 307.356 19.2613C307.654 18.9627 308.027 18.8134 308.474 18.8134H314.285C314.732 18.8134 315.105 18.9627 315.403 19.2613C315.701 19.5599 315.85 19.9332 315.85 20.3811V23.89C317.24 21.9987 318.879 20.5305 320.767 19.4853C322.704 18.3903 324.815 17.8428 327.099 17.8428C329.931 17.8428 332.464 18.5147 334.699 19.8585C336.984 21.2024 338.772 23.0688 340.063 25.4578C341.354 27.8468 342 30.5344 342 33.5206V60.0236C342 60.4715 341.851 60.8448 341.553 61.1434C341.255 61.442 340.882 61.5914 340.435 61.5914H334.624C334.177 61.5914 333.805 61.442 333.507 61.1434C333.209 60.8448 333.06 60.4715 333.06 60.0236V34.6405C333.06 32.0026 332.389 29.9869 331.048 28.5933C329.707 27.15 327.82 26.4283 325.386 26.4283C322.456 26.4283 320.121 27.3988 318.383 29.3399C316.694 31.2312 315.85 33.8441 315.85 37.1788V60.0236C315.85 60.4715 315.701 60.8448 315.403 61.1434C315.105 61.442 314.732 61.5914 314.285 61.5914H308.474Z"
                    fill="white" />
            </svg>